# xmcd
#
# Track frame offsets:
#	150
#	22918
#	48561
#	70224
#	91624
#	113898
#	136832
#	160803
#	183530
#	202802
#	224310
#	244036
#	260901
#	266089
#
# Disc length: 3626 seconds
#
# Revision: 1
# Processed by: cddbd v1.5.2PL0 Copyright (c) Steve Scherf et al.
# Submitted via: audiograbber 1.83.01
#
DISCID=c40e280e
DTITLE=Various Artist - Full Tilt 12
DYEAR=2007
DGENRE=
TTITLE0=50 Cent Feat Justin Timberlake - AYO Technology (70 BPM)
TTITLE1=Hurricane Chris - A Bay bay (77 BPM)
TTITLE2=Fabolous Feat Ne Yo - makes Me Better (90 BPM)
TTITLE3=Che'nelle Feat Baby Cham - I Fell in love with the DJ (102 BPM)
TTITLE4=Kanye West - Stronger (104 BPM)
TTITLE5=Fergie - Big Girls Don't Cry (personal) (113 BPM)
TTITLE6=Gym Class Heroes - Clothes Off (115 BPM)
TTITLE7=Will I Am - I Got It From My Mama (119 BPM)
TTITLE8=Paula Deanda feat bow wow - Easy (121 BPM)
TTITLE9=Justin Timberlake - Lovestoned (121 BPM)
TTITLE10=Nelly Furtado Feat Missy Elliot - Do It (125 BPM)
TTITLE11=Kid frost Vs Down - Lean Like A Raza (mashup Mix ) (108 BPM)
TTITLE12=Loop Track - Mama Beats (119 BPM)
TTITLE13=Loop Track - Do It Beats (125 BPM)
EXTD=
EXTT0=
EXTT1=
EXTT2=
EXTT3=
EXTT4=
EXTT5=
EXTT6=
EXTT7=
EXTT8=
EXTT9=
EXTT10=
EXTT11=
EXTT12=
EXTT13=
PLAYORDER=
